<?xml version="1.0" encoding="UTF-8" standalone="no"?><!DOCTYPE svg PUBLIC "-//W3C//DTD SVG 1.1//EN" "http://www.w3.org/Graphics/SVG/1.1/DTD/svg11.dtd"><svg width="100%" height="100%" viewBox="0 0 2481 1323" version="1.1" xmlns="http://www.w3.org/2000/svg" xmlns:xlink="http://www.w3.org/1999/xlink" xml:space="preserve" xmlns:serif="http://www.serif.com/" style="fill-rule:evenodd;clip-rule:evenodd;stroke-linejoin:round;stroke-miterlimit:2;"><g id="Layer-1" serif:id="Layer 1"></g><g><path d="M1438.201,700.137c10.986,-16.406 44.422,-58.809 57.876,-76.734c3.808,-5.073 16.33,-22.987 19.786,-25.52c-0.488,5.821 -1.899,12.706 -2.816,19.194l-11.23,78.085c-1.411,6.982 -1.204,5.008 -18.316,4.975c-15.098,-0.022 -30.202,0 -45.301,0Zm-292.533,-97.074l154.033,0c-2.333,3.185 -27.294,18.348 -32.606,21.755l-91.111,57.746c-22.656,13.813 -62.048,37.016 -75.058,55.674c-18.261,26.193 -6.559,63.296 20.724,72.638c29.936,10.248 86.033,7.275 122.398,7.042c9.559,-0.06 10.303,-0.852 16.818,2.599c-0.928,11.154 -9.098,15.69 -15.223,22.314c-3.613,3.901 -4.959,6.348 -9.038,10.373c-3.516,3.472 -6.776,6.125 -9.391,10.026l95.782,0c2.913,-4.346 5.653,-8.811 8.865,-13.14l56.607,-80.602c2.588,-3.559 6.635,-12.397 10.899,-12.397l91.903,0l-9.065,60.838l82.973,0.13c5.984,-0.635 5.17,-1.486 5.192,-7.753c0.114,-32.98 5.989,-79.143 6.282,-112.801l1.335,-23.258c0.288,-5.615 1.009,-4.731 1.307,-10.346c0.195,-3.771 -0.212,-7.888 -0.016,-11.659c0.298,-5.615 1.02,-4.731 1.307,-10.346c0.879,-17.144 3.532,-96.146 6.467,-102.26l-90.607,0c-1.373,5.138 -49.728,61.121 -55.37,67.593c-4.026,4.617 -7.324,8.458 -11.192,13.406c-2.246,2.881 -3.326,3.505 -5.539,6.114l-74.358,88.735c-4.286,5.306 -32.269,37.136 -33.463,41.606c-16.368,0 -93.884,2.864 -104.902,-3.819c-11.03,-6.689 -5.935,-14.827 0.559,-21.565c5.539,-5.751 0.662,-2.794 9.841,-9.575l36.257,-27.169c9.63,-7.205 18.831,-14.442 28.661,-21.82c9.879,-7.406 18.809,-14.041 28.862,-21.62l50.102,-37.917c12.597,-9.391 16.585,-19.091 24.582,-38.839c4.465,-11.024 15.174,-26.958 15.353,-35.128l-232.992,0c-0.591,7.15 -25.433,55.918 -27.18,63.426Z" style="fill:#015ea9;"/><path d="M1615.529,603.064l77.662,0l-62.981,133.759c-4.731,9.38 -8.23,17.795 -12.955,27.17c-2.534,5.018 -3.651,8.241 -6.033,13.384c-2.241,4.834 -4.177,8.094 -6.494,12.923l-12.5,27.631l89.315,0c13.872,-26.22 30.663,-66.166 43.988,-93.216l56.976,-121.65l84.129,0c-4.584,8.664 -8.458,16.628 -12.565,26.258l-25.515,53.444c-8.393,20.334 -30.446,60.806 -38.47,80.619c-3.95,9.765 -24.3,48.523 -25.699,54.545l208.394,0l21.554,-45.751c2.441,-5.089 6.434,-10.53 6.917,-16.379l-116.49,0l17.67,-39.279c2.268,-4.704 5.159,-8.192 5.626,-13.791l119.084,0c2.36,-10.118 22.851,-46.885 24.592,-54.366l-116.49,0c1.66,-7.145 18.972,-37.857 20.708,-45.301c35.351,0 70.826,-0.293 106.161,0.016c18.885,0.168 12.684,0.233 26.296,-26.768c4.063,-8.062 16.037,-29.567 17.692,-36.674l-462.093,0c-0.342,4.129 -11.203,26.35 -13.813,31.493l-14.664,31.933Z" style="fill:#015ea9;"/><path d="M224.069,817.93l177.22,1.183l-17.268,9.912c-36.946,14.529 -60.111,17.974 -101.68,12.174c-6.657,-0.928 -41.633,-13.753 -49.684,-17.621l-8.588,-5.648Zm95.782,-358.547l19.401,0c8.691,0.233 13.124,1.351 31.602,5.957c32.313,8.051 48.539,15.153 74.559,35.459c17.572,13.709 40.95,40.418 50.905,60.41c15.896,31.917 20.947,44.134 25.271,84.753c3.776,35.454 -9.066,88.399 -28.027,116.572c-9.874,14.675 -20.969,27.896 -33.392,40.391l-19.932,16.308l-35.888,19.77c-4.85,2.056 -7.807,3.597 -12.798,5.322c-5.018,1.742 -9.044,3.114 -13.438,4.687c-4.465,1.595 -9.359,2.094 -14.751,3.369c-57.459,13.574 -124.124,-2.729 -168.1,-41.883c-4.091,-3.64 -6.353,-5.018 -10.351,-9.065c-15.706,-15.891 -11.979,-11.936 -24.815,-29.557c-8.192,-11.241 -7.612,-11.789 -13.693,-23.838c-3.771,-7.465 -7.839,-16.737 -10.856,-25.39c-10.471,-30.061 -11.127,-48.144 -11.143,-79.263l0,-1.492c0,-18.093 12.641,-57.686 20.708,-73.778c12.749,-25.439 14.692,-23.725 29.025,-42.17c30.723,-39.566 97.182,-66.562 145.716,-66.562Zm85.431,357.251l28.645,-62.189c1.704,-3.277 3.825,-5.382 -1.367,-6.353l-103.649,-0.06l85.002,-188.109c1.709,-3.662 4.818,-10.433 5.604,-13.813c12.467,3.326 36.68,40.673 43.521,50.97c3.689,5.556 4.573,9.624 7.405,15.891c9.961,22.032 12.5,49.684 12.5,74.222c0,22.233 -13.889,61.072 -25.374,78.177c-2.072,3.076 -2.957,5.083 -4.959,7.986l-17.854,20.974c-4.416,4.357 -9.369,7.633 -14.236,11.659c-5.007,4.134 -10.01,7.145 -15.239,10.644Zm-182.51,0c-3.955,-0.922 -4.975,-2.013 -7.763,-3.879l21.999,-49.19c-19.449,-13.026 -18.619,-17.952 -26.974,-29.974c-2.734,-3.939 -5.572,-7.411 -7.932,-11.485c-17.838,-30.832 -18.158,-52.305 -18.158,-85.388c0,-19.33 17.561,-57.844 27.538,-69.535c2.87,-3.358 4.704,-4.59 7.405,-8.132c14.04,-18.381 48.496,-38.742 70.436,-43.467c28.732,-6.19 59.086,-7.59 86.749,4.08c9.592,4.042 34.873,16.162 39.561,22.563l-71.19,0l-61.017,137.025c-10.33,25.379 -27.273,58.782 -38.101,84.861c-3.429,8.263 -22.157,47.753 -22.553,52.522Z" style="fill:#015ea9;"/><path d="M937.274,700.137l77.662,-102.255c-0.483,5.778 -2.116,12.348 -3.157,18.847l-9.038,58.272c-1.042,6.776 -2.062,13.059 -3,19.005c-0.846,5.333 0.125,5.653 -5.387,6.261l-57.079,-0.13Zm-344.306,117.792l262.76,0c1.172,-4.411 6.982,-11.773 9.836,-16.053c3.765,-5.653 6.516,-10.058 10.509,-15.375c3.906,-5.203 6.857,-10.02 10.465,-15.429c2.376,-3.564 7.747,-13.981 11.903,-13.981l90.607,0l-9.06,60.838l82.973,0.13c5.995,-0.635 5.17,-1.497 5.176,-7.763c0.016,-9.456 1.069,-13.086 1.145,-22.162c0.043,-5.767 0.684,-6.494 1.123,-10.525l2.745,-46.44c0.152,-6.239 1.047,-5.892 1.324,-11.615l6.548,-100.887c0.38,-4.877 1.107,-4.481 1.248,-10.4l2.49,-33.756c0.602,-7.633 0.054,-29.437 2.664,-34.873l-91.903,0c-1.156,4.34 -1.687,3.407 -4.595,7.053c-2.501,3.13 -3.705,4.243 -5.941,7.004c-3.792,4.682 -7.069,8.892 -11.133,13.46l-133.992,161.129c-3.141,3.526 -20.524,23.214 -21.668,27.517l-112.611,0l18.137,-40.109c2.192,-4.422 3.608,-8.588 6.027,-13.389l37.043,-80.744c4.074,-9.527 8.192,-18.706 12.587,-27.544l12.06,-26.768c2.279,-4.894 3.922,-8.556 6.065,-13.357c1.047,-2.344 2.181,-4.226 3.44,-6.912c1.389,-2.968 1.796,-4.801 3.016,-7.34l-81.546,0c-0.472,5.626 -4.861,12.337 -7.34,17.258c-3.125,6.201 -5.252,11.87 -8.192,17.697l-40.998,85.849c-3.081,6.657 -5.165,11.643 -8.192,17.697l-57.383,121.243c-2.772,5.501 -7.183,11.616 -7.335,18.549Z" style="fill:#015ea9;"/><path d="M2317.087,709.203l-85.431,0c-2.935,10.986 -25.276,33.311 -41.584,39.962c-14.024,5.718 -35.014,9.635 -48.681,-0.179c-20.241,-14.54 7.59,-73.3 18.305,-91.035l17.99,-24.723c7.997,-9.619 6.364,-6.488 15.337,-13.14c34.141,-25.314 69.698,-16.992 69.698,2.387c0,13.823 1.367,13.373 -3.884,23.301l88.019,0c7.058,-30.295 9.06,-5.143 9.06,-58.245c0,-9.798 -4.34,-17.914 -8.838,-23.524c-11.724,-14.632 -23.621,-21.723 -41.959,-25.352c-35.882,-7.091 -56.596,-5.702 -92.131,4.318c-24.69,6.961 -11.246,2.257 -31.455,11.257c-4.443,1.98 -5.675,2.875 -9.413,4.828c-6.668,3.478 -12.033,6.586 -18.196,10.275c-3.054,1.828 -5.957,3.418 -8.93,5.311c-22.553,14.388 -56.368,48.447 -68.879,72.21l-15.321,27.397c-5.545,11.062 -13.14,27.175 -15.874,41.074c-1.275,6.488 -4.535,16.883 -4.829,23.648c-0.917,21.701 -3.662,26.22 5.892,47.167c4.839,10.606 18.533,24.972 28.727,28.227c6.684,2.132 14.594,4.243 22.151,6.326c17.567,4.85 45.067,4.752 63.301,2.105c17.523,-2.545 39.382,-8.279 54.882,-16.308c6.456,-3.347 11.93,-6.31 18.771,-9.706c7.281,-3.608 11.344,-6.244 17.784,-10.688c22.607,-15.614 40.261,-35.823 55.386,-58.516c3.168,-4.753 9.597,-12.38 10.102,-18.381Z" style="fill:#015ea9;"/></g></svg>